<svg width="240" height="246" viewBox="0 0 240 246" fill="none" xmlns="http://www.w3.org/2000/svg">
<path d="M50.644 16.9379V15.4738L53.3659 16.5719H55.5045L56.0878 18.0361L59.0041 18.5851H60.1706L60.9483 20.7814V22.7946L61.5316 23.8928L62.3092 23.5267L64.059 24.9909V26.089H64.8367L65.6144 27.1872L67.5586 28.2853L66.7809 30.4816H68.3363L69.6972 31.2137L71.6415 33.2269V33.959L69.8917 33.2269L68.7251 31.7627L67.753 32.1288H66.5865L66.3921 32.8609L65.2256 33.2269L64.4479 33.959L62.8925 35.2402L62.1148 34.6911V38.3515H60.7539L59.7818 39.4497H58.2264L57.4487 40.3648L56.671 39.4497H53.3659L52.3938 38.9006V36.7043H50.2551V35.9723L49.0886 34.142L47.5332 32.8609L46.3667 31.5797L47.7277 30.4816V28.6514L46.3667 28.2853V26.4551L47.7277 25.723L48.3109 24.6249H45.7834L45.589 23.1607L46.3667 22.7946V21.5135H44.6169V19.5002H46.3667L46.7555 18.4021H47.5332L48.3109 16.9379H50.644Z" fill="url(#paint0_linear_2_2977)"/>
<path d="M76.6937 34.9865L77.0771 34.4295L78.4193 34.9865L79.378 36.4718V37.4002H80.3367H82.0623L83.788 39.9995V41.1135L84.1714 42.4132L85.3219 43.3415L85.8971 44.2698L85.3219 45.7552L86.2805 47.0549L85.3219 49.0972L86.4723 49.6542L87.0475 50.2112H86.2805L85.8971 50.9539H84.5549L82.4458 50.2112L81.6788 50.7682H80.3367L78.9945 51.6965L78.0358 52.9962L77.4606 54.4816L77.6524 55.5956L78.0358 56.7096L77.6524 57.2666L77.0771 57.6379L76.6937 58.3806L74.968 58.0092H74.2011L73.0507 56.7096L72.6672 55.2242L70.3663 53.9245L69.0242 52.9962V51.5109L67.8737 49.8399H64.6142V47.4262L63.4638 45.7552L63.272 44.8269L61.9299 43.3415H60.9712V41.1135H61.9299L62.6968 39.6282L62.3134 38.5142V34.6151L63.272 35.3578L65.5729 33.3155L66.5316 32.9441L66.9151 32.2015H67.8737L68.8324 31.8301L69.9829 33.3155L71.7085 34.0581L73.0507 34.9865H76.6937Z" fill="url(#paint1_linear_2_2977)"/>
<path d="M59.7804 39.5779L60.5569 38.4673H62.1099L62.4982 39.763L61.7217 41.0587H60.751V43.465H61.7217L63.2747 44.9458V45.8713L64.4394 47.3521V49.7584H67.7396L68.9043 51.4243L69.0984 53.0902L70.2632 53.8306L69.2926 54.3859L69.6808 56.0518L70.4573 57.7177V58.4581H69.2926L68.1278 60.3091L66.7689 61.0495L65.7983 60.6793L64.8277 61.7899V62.9005L64.0512 63.6409L63.0805 64.0111H58.8098L57.645 64.5664L57.0626 65.4919L56.4803 64.3813L55.8979 62.9005L54.9273 62.7154L53.7625 62.3452H51.8212L51.0447 62.7154L49.88 62.3452H47.3564L45.8033 61.0495V58.0879L47.7446 55.6816L51.433 52.3498V48.8329L50.4624 46.4266L52.7919 43.6501L54.7331 42.5395L56.8685 41.614L57.4509 40.6885L58.2274 39.5779H59.7804Z" fill="url(#paint2_linear_2_2977)"/>
<path d="M78.0195 58.9199L76.8548 58.1871V57.4002L77.6312 57.0881L78.0195 56.5385L77.4371 55.4394V54.3403L78.0195 52.8749L79.1841 51.5926L80.5429 50.6767H82.0958L82.484 50.1272L84.8134 50.6767H85.9781L86.5604 50.1272H87.1427L88.8897 48.6617L89.278 49.2113L89.6662 50.6767L91.6073 52.3254L92.772 53.2413L95.6837 53.4244L96.4601 53.6076L97.0424 54.8899L97.8189 55.4394L98.5953 56.9049L101.701 57.6376L102.478 58.1871L103.642 59.4694V60.0189L102.866 61.118L101.701 61.4844L101.313 62.5835L100.148 63.3162L99.3718 64.4153V65.3312V66.2471L98.5953 67.3462V68.9948L98.2071 69.9107L97.0424 70.8266V72.2921L96.4601 72.8416L95.4896 72.2921H93.9367L92.5779 71.3762L91.9955 71.9257L91.025 71.3762L89.6662 69.9107H88.5015L87.1427 68.9948L86.5604 68.0789L87.1427 66.9798L85.9781 66.2471L84.4252 64.9648L83.6487 64.0489L83.0664 62.5835L81.3194 62.0339V64.0489L80.5429 64.9648H78.7959L78.0195 64.0489L78.4077 62.0339V61.4844L78.7959 60.3853V59.4694L78.0195 58.9199Z" fill="#FF847C"/>
<path d="M69.4357 54.2454L70.4063 53.877L72.5415 55.1664L73.318 56.6401L74.2885 57.9296L75.2591 57.7454L76.6179 58.298V59.219L75.6473 59.9559L75.2591 60.6927L74.0944 61.798L73.5121 62.3506L73.318 63.6401L72.5415 64.3769L72.1533 65.4822V66.7717L72.9298 67.5085V70.2717L72.5415 71.3769L73.5121 72.298L74.2885 73.0348V75.2453L75.2591 76.1664L76.0356 78.1927V79.298L75.6473 80.7716L75.065 81.3243L74.2885 81.1401L73.318 81.6927L71.7651 82.798L70.6004 81.6927V79.298L70.0181 78.0085L69.4357 78.1927L69.0475 79.298L68.2711 79.8506L66.5241 78.0085V79.298L64.9712 79.8506L64.3888 81.6927L63.2241 80.7716V78.0085L61.8654 76.3506L60.8948 74.8769L59.7301 73.4032V71.9296L58.9537 71.0085L58.5655 69.5348V68.4296H56.042L54.1009 67.5085L53.3244 66.7717V67.6927H51.9656L51.3833 66.7717V65.4822L50.801 63.6401L49.8304 62.3506L51.3833 62.719L51.9656 62.3506H53.9068L55.0714 62.719L56.042 62.9033L56.6243 64.5611L57.2067 65.4822L57.789 64.5611L58.9537 64.0085H63.2241L64.3888 63.6401L64.9712 62.9033V61.798L65.9417 60.6927L66.9123 61.0612L68.2711 60.3243L69.4357 58.4822H70.6004V57.7454L69.824 56.0875L69.4357 54.2454Z" fill="url(#paint3_linear_2_2977)"/>
<path d="M56.0641 68.7816H58.7787V69.7031V71.3618L59.7481 72.2833V73.7577L60.9115 74.8635L61.4932 76.1536L63.2383 77.9966V81.1297L64.5956 81.8669L65.1773 80.0239L66.5346 79.6553V77.9966L68.2796 80.0239L69.0552 79.6553L69.443 78.3652H70.0247L70.4125 79.6553V81.8669L71.5759 82.9727L73.1271 82.2355L74.4844 83.3413V84.6314L75.6477 86.1058V87.3958L76.4233 88.133L75.066 89.2388L74.4844 90.5289L75.066 90.8975L78.7501 89.2388H79.3318L80.883 89.7917V90.8975L79.3318 92.1876H78.7501L77.9745 93.2934H77.1989L75.6477 94.0306H73.9027L73.1271 95.505H72.3515L71.5759 96.4265L69.443 97.348L68.6674 98.4538L67.6979 99.0067L67.3101 100.481L67.6979 101.587L68.2796 102.324L69.8308 103.061L73.1271 102.877L73.9027 102.324H75.066V105.273H71.5759L70.4125 105.457V106.379L70.0247 107.485L70.4125 108.775H72.3515L71.7698 109.696L70.9942 110.986H70.4125V113.751L68.6674 113.382L67.6979 112.645H64.2078V113.382V114.488L63.0444 115.041V115.962H59.5542V115.041L61.4932 114.488V110.618H63.0444L61.4932 108.775L60.1359 108.222H58.0031L56.6458 107.485L57.0336 106.747L56.258 106.01L55.0946 107.116L54.1251 107.485L53.5434 110.065V113.014L54.7068 114.119V117.99L54.1251 118.911L52.1861 119.464L51.4106 120.201V120.754L52.1861 121.307H52.9617V122.229L51.4106 123.334H49.0838V122.597H48.5021L47.5326 121.307L46.3692 120.754L45.0119 119.464L42.4913 117.99L41.7157 116.515V115.041H40.5523L39.3889 114.119L39.9706 113.014V111.908L39.3889 110.986H34.1537L32.7964 110.065L32.0208 108.775L30.4696 109.328H25.6222L24.071 108.775L22.132 109.328V108.222L21.3564 106.747V105.642L19.0297 103.43V100.481H18.448L16.1212 100.113L14.3761 98.4538V92.7405L13.4067 92.1876H11.6616L10.1104 91.2661L9.5287 90.3446V87.7645L10.6921 87.0273L11.6616 85.1843L13.4067 83.8942L13.7944 83.157L14.3761 81.1297L16.1212 80.3925L17.0907 79.1024L18.448 79.8396L19.8053 81.1297L20.1931 82.4198H22.132L23.4893 81.1297H28.7246L29.3062 79.1024L30.4696 77.628H31.0513L32.7964 73.7577L34.1537 73.0205L35.8988 71.7304L37.0621 71.3618L38.0316 70.256L38.8072 68.0444L39.7767 66.7543L40.3584 64.9113V63.8055L42.6852 61.9625L44.4302 61.2253H45.9814L47.5326 62.6997H49.8594L50.8289 64.1741L51.4106 65.8328V66.7543L52.1861 68.0444H53.3495V66.7543L54.319 68.0444L56.0641 68.7816Z" fill="#FF847C"/>
<path d="M21.9847 110.539V109.244L24.3002 108.874L25.4579 109.244H30.6676L31.8253 108.874L32.5972 109.799L33.7549 110.909H39.1576L39.7365 112.019V113.129L39.3505 114.054L40.5083 115.164H41.473V116.459L42.4378 118.309L44.9462 119.419L46.2969 120.714L47.4546 121.454L48.4194 122.749H48.9982V123.674L50.5419 125.339L49.963 126.449H48.9982L47.8405 127.188V128.113V132.738H46.4898L44.5603 134.033V135.143L45.911 135.698H47.8405L46.4898 136.438L45.911 137.733L44.5603 138.843H43.2096L42.4378 139.398L45.1392 140.323V142.913L44.5603 143.838H43.2096L41.8589 143.468L41.473 144.948V147.538H39.3505L37.9999 146.613L36.6492 146.983V148.463H35.2985L36.0703 146.243L36.6492 143.838L37.614 142.913L36.6492 141.248V140.323L35.2985 139.398V136.438L36.6351 135.691L34.9126 134.773L35.2985 132.738H33.7549V131.258L34.5267 130.518H32.5972V132.738H31.4394V134.033L32.5972 135.143V136.438L31.4394 138.843L28.931 140.323L27.0015 140.693L24.3002 142.173L21.9847 142.913H20.0552L18.8975 142.173L17.1609 140.693L15.8102 140.323L14.8454 138.843L12.7229 137.733L10.7934 135.698L9.63567 135.143L9.05681 133.478H7.89909L6.93432 131.813L5.58365 130.518V128.853L6.93432 127.928L7.89909 128.853H9.05681L10.2145 127.928L11.3723 128.113L13.4947 127.928L15.8102 126.449L16.3891 124.414L17.5468 123.674L18.3186 122.749L16.3891 123.119L15.8102 123.674H14.2666L11.7582 124.414L10.7934 125.339H9.63567L7.89909 124.414H6.93432L5.00479 123.674L4.04002 122.379L2.30343 121.084L1.14571 119.789L0.759804 118.309V117.014L2.30343 116.459L2.88229 114.609V113.499L3.46116 112.019L9.63567 112.204L10.7934 113.499H11.7582H13.4947L14.2666 112.759L15.8102 112.204H17.1609L17.5468 111.464H17.9327V112.759H20.0552L21.0199 112.019L21.9847 110.539Z" fill="url(#paint4_linear_2_2977)"/>
<path d="M78.6811 59.6741L76.5432 58.3806L76.3488 59.3045L75.377 60.0437L74.9883 60.7829L73.2391 62.4461L73.0447 63.7397L72.2673 64.4789L71.8786 65.5877V66.8813L72.656 67.6205V70.3925L72.2673 71.5013L74.0165 73.1645V75.382L74.9883 76.306L75.7657 78.3388V79.4476L75.377 80.926L74.7939 81.4804L74.0165 81.2956L72.656 82.0348L74.2109 83.3284L74.4052 84.622L75.377 86.1004V87.394L76.1544 88.1332L74.7939 89.2419L74.2109 90.5355L74.9883 90.9051L78.2924 89.2419H79.0698L80.4303 89.7963H81.0134L83.7344 90.9051L84.7062 90.7203L86.6498 91.2747L88.2046 92.9379V95.1555L87.4272 95.5251V97.0035L86.261 98.8515L85.4836 100.515H84.5118L83.9287 101.808H82.3739L81.5965 102.363V103.656L82.3739 104.211L82.5682 105.689L81.7908 106.428H81.2077V107.537L81.5965 108.276V110.863L82.7626 111.233L83.54 111.972L84.7062 112.896L85.678 113.081L86.4554 112.527H87.4272V111.048L86.6498 109.57H86.0667L85.4836 108.091L85.2893 107.167L84.3175 105.689V103.656L85.4836 103.102L86.6498 102.547H87.4272V104.395L88.2046 104.765L90.3425 104.58L91.7031 105.689H94.0353L94.8128 104.58L95.7846 104.211L96.1733 103.656H98.6999V105.689H99.6717L101.032 105.135H103.17L102.781 106.428L103.17 107.167H104.725L105.114 106.798L106.474 105.135L108.807 105.319L109.778 105.689L110.75 106.613L112.111 107.167L113.471 107.537L115.22 109.015H117.941L118.913 109.755L119.107 116.223H122.412L123.189 114.929L123.966 113.82L124.355 112.527L124.938 111.787L124.355 110.863V110.494H125.327L125.521 109.015L124.744 108.091L123.772 107.537L123.578 106.428V105.319L124.549 104.026L125.133 103.471L126.493 103.102L127.076 102.547L128.242 101.993L129.214 101.254L129.991 100.515L130.769 100.33L131.935 100.699L133.684 100.33L134.462 99.5907L133.296 98.6667L132.129 98.2971L130.769 97.3731L129.991 96.6339V96.0795L129.603 95.3403H130.575V94.6011L129.603 93.6771L128.825 93.1227L129.991 92.0139H131.935V90.3507L129.603 88.5027L128.048 85.9156V85.3612H126.493L125.716 84.8068L123.966 84.622V85.1764L123.383 85.9156L122.8 84.8068L119.107 84.622L118.913 83.3284L118.524 82.5892H115.22L114.249 80.926H112.111L109.584 80.1868L108.223 79.4476L105.891 77.5996L103.948 76.4908L102.781 75.1972L101.421 74.458H99.8661L98.5056 73.9036L96.9507 72.6101L96.3676 73.1645L95.3958 72.6101H93.841L92.4805 71.6861L91.8974 72.2405L90.7313 71.5013L89.7595 70.2077H88.399L87.0385 69.2837L86.4554 68.3597L87.0385 67.2509L86.0667 66.6965L84.3175 65.2181L83.54 64.2941L82.957 62.8157L81.2077 62.2613V64.2941L80.4303 65.2181H78.6811L77.9037 64.2941L78.2924 62.4461V61.7069L78.6811 60.5981V59.6741Z" fill="url(#paint5_linear_2_2977)"/>
<path d="M49.3282 132.696H48.3625H48.1694V127.318L49.3282 126.576H50.2939L50.8733 125.464L49.3282 123.795V123.424H51.4527L52.9977 122.311V121.384H52.2252L51.4527 120.828V120.271L52.2252 119.529L54.1566 118.973L54.736 118.046V114.151L53.5772 113.039V110.072L54.1566 107.475L55.1222 107.104L56.281 105.992L57.0536 106.734L56.6673 107.475L58.0192 108.217H60.3368L61.4956 108.773L63.0407 110.628H61.4956V114.522L59.5643 115.079V115.82L63.0407 116.006L63.2338 115.079L64.1995 114.522V112.668H67.6759L68.6416 113.41L70.3798 113.781V110.999H70.9592L72.3111 108.773H70.3798L69.9935 107.475L70.3798 106.363V105.435L71.5386 105.25H75.015V102.283H73.8562L73.0837 102.839L69.8004 103.025L68.2553 102.283L67.6759 101.541L67.2897 100.428L67.6759 98.9448L68.6416 98.3884L69.4141 97.2758L71.5386 96.3485L72.3111 95.4213H73.0837L73.8562 93.9377H75.5944L77.1395 93.1959H77.912L78.6846 92.0832H79.264L80.809 90.7851V89.6724H81.1953L83.8992 90.7851L84.8648 90.5997L86.7962 91.156L88.3412 92.825V95.0504L87.5687 95.4213V96.9049L86.4099 98.7593L85.6374 100.428H84.6717L84.0923 101.726H82.5472L81.7747 102.283V103.581L82.5472 104.137L82.7404 105.621L81.9678 106.363H81.3884V107.475L81.7747 108.217V110.813L82.9335 111.184L83.706 111.926L84.8648 112.853L85.8305 113.039L86.603 112.482H87.5687V110.999L86.7962 109.515H86.2168L85.6374 108.032L85.4442 107.104L84.4786 105.621V103.581L86.7962 102.468H87.5687V104.323L88.3412 104.694L90.4657 104.508L91.8177 105.621H94.1353L94.9078 104.508L95.8735 104.137L96.2597 103.581H98.7705V105.621H99.7361L101.088 105.065H103.213L102.826 106.363L103.213 107.104H104.758L106.496 105.065L108.813 105.25L109.779 105.621L110.745 106.548L112.097 107.104L113.449 107.475L115.187 108.959H117.891L118.856 109.701L119.05 116.562L117.698 117.119H113.062L112.483 116.748L111.71 116.191H109.972L109.586 118.231V119.529H111.71L112.869 120.457H113.449L114.414 121.198V122.126L112.869 123.424L111.71 124.722L110.745 124.536L110.552 126.576L109.586 126.947L108.62 127.689L108.427 128.431H106.496L105.916 128.802L105.337 129.914V130.471L104.564 131.769H103.792L103.213 132.511V134.18L102.44 134.736V137.332L101.088 137.889L100.895 137.332L99.7361 136.776L98.5773 135.292H96.8391V136.22L95.1009 135.849L94.7147 135.107L93.749 135.663H92.7833L92.0108 134.551L91.6245 134.736H90.2726L89.3069 135.107L86.9893 135.849L85.4442 136.22H84.6717L84.0923 135.663H82.7404L81.5816 136.22L81.0022 137.332L79.264 137.703H77.912L75.9807 137.147L74.8219 136.776L75.9807 135.663V134.736H72.8905L70.5729 135.107L70.3798 136.22L69.221 137.332L68.8347 139.001L66.1309 139.187L65.3583 139.929L64.1995 139.001L63.6201 137.332L63.0407 137.703H59.3712L57.4398 136.776H56.281L55.3154 135.663L53.1909 135.107L51.4527 134.736L50.2939 133.438V131.954L49.3282 132.696Z" fill="url(#paint6_linear_2_2977)"/>
<path d="M129.167 85.1945H128.007V85.7476L129.554 88.3289L131.876 90.1727V91.8321H129.941L128.78 92.9384L129.554 93.4915L130.522 94.229V95.1509H129.554L129.941 95.8884V96.4415L130.715 97.1791L132.069 98.1009L133.423 98.4697L134.39 99.3916L133.617 100.129L131.876 100.498L130.715 100.129L129.941 100.313L129.167 101.051L128.2 101.788L127.039 102.342L126.459 102.895L125.105 103.264L124.525 103.817L123.557 105.107V106.398L123.751 107.32L124.718 107.873L125.492 108.979L125.298 110.27H128.587L129.361 109.532L129.941 109.901L131.102 110.823L132.649 111.376L133.036 112.667H134.39L135.358 111.007L136.131 110.27L136.905 111.745H137.679L139.42 110.823H141.935L143.096 110.086V108.242H145.224L146.578 109.164L147.158 110.27L148.125 111.007L148.899 112.114L149.673 111.929L150.06 111.376V111.007L150.64 109.532L152.188 109.717H153.542L154.316 108.979V106.582L157.217 104.554L157.798 103.817H160.312V102.157L162.054 101.788L162.827 100.867L162.634 100.313L161.086 99.2072L160.312 98.2853V97.7322L163.214 95.8884L163.601 94.229H164.181L164.568 93.3071L163.601 91.8321L162.054 93.3071L161.086 93.6759H157.604L156.83 94.229L154.509 93.6759L153.735 92.3852H152.961L152.188 93.6759H151.607L149.673 92.3852H149.286L145.804 91.4633L144.643 92.3852L143.289 91.8321V90.5414L142.322 89.8039L141.548 90.5414L140.581 90.7258H139.033V90.5414L137.679 89.8039L137.099 89.0664L136.325 89.2508L134.584 88.1445L134.004 87.2226L134.197 85.932H133.423L130.908 84.457L129.941 84.6413L129.167 85.1945Z" fill="#165DC9"/>
<path d="M35.6059 151.118V148.527H36.9583V147.046L38.3108 146.676L39.6633 147.602H41.7885V145.01L42.175 143.529L43.5274 143.9H44.8799L45.4595 142.974V140.383L42.7546 139.457L43.5274 138.902H44.8799L46.2323 137.791L46.812 136.496L48.1644 135.755H46.2323L44.8799 135.2V134.089L46.812 132.794H48.1644V132.608H49.5169L50.2897 131.868V133.349L51.449 134.645L55.3131 135.57L56.2792 136.681H57.4384L59.3705 137.606H63.0415L63.6211 137.236L64.2007 138.902L65.36 139.827L66.1328 139.087L68.8377 138.902L69.2242 137.236L70.3834 136.125L70.5766 135.015L72.8951 134.645H75.9865V135.57L74.8272 136.681L77.9186 137.606H79.271L81.0099 137.236L81.5895 136.125L82.7488 135.57H84.1012L84.6809 136.125H85.4537L90.2839 134.645H91.6364L92.0228 134.459L92.7956 135.57H93.7617L94.7277 135.015L95.1141 135.755L96.853 136.125V135.2H98.5919L99.7511 136.681L100.91 137.236L101.297 138.347L99.1715 140.198L100.138 141.678L100.331 142.789L99.7511 143.9L101.297 144.825V146.491H99.7511V147.602H100.717V148.342L99.7511 149.082V150.193L100.91 150.933L102.456 152.784V154.635H100.91L100.331 153.895H99.7511L99.3647 155.005V156.856L98.5919 157.412V160.188L97.6258 160.003H96.6598L95.887 159.263V157.967L95.5005 157.042V154.82L95.887 154.45L95.5005 153.525L94.5345 152.229H93.7617V153.154H92.4092L91.6364 152.784L90.2839 152.414L90.0907 151.859H88.7382L88.3518 152.229H87.3858L86.8061 151.304L86.0333 150.378H83.908L82.5556 150.008V152.044L81.7827 153.895V154.635L80.8167 155.191L79.0778 154.635L78.6914 155.005L77.7253 157.042L79.0778 158.707V159.263L78.1118 160.003L77.7253 160.558L76.9525 161.299L76.1797 161.669L75.9865 162.78H74.8272L74.634 162.409L74.2476 162.039L73.668 162.224L72.7019 163.52L71.7359 164.26H70.5766L70.1902 165.001V166.482H69.4174L68.8377 167.962H66.5192L65.9396 169.443V170.739H65.1668L63.6211 170.369L62.8483 170.739L60.5298 169.999H59.9502L59.3705 171.109L59.9502 172.035V173.886H57.052L56.4724 174.811H55.5064L54.9267 174.256L53.7675 174.811L53.3811 175.922L52.0286 176.292V177.588L51.0626 177.032H49.9033L49.1305 177.588V178.883L49.9033 179.994H51.0626L50.8694 182.03L50.2897 182.585L48.7441 184.807H46.2323L45.6527 185.547L45.0731 185.917L44.3003 184.621L43.141 183.141V181.29L42.3682 180.549L41.7885 179.254V177.403L41.2089 175.922V174.996L40.8225 173.145V172.035L40.2429 170.739V169.628L39.47 168.333V167.222L38.6972 165.926L38.8904 165.001L37.9244 163.15V160.929L36.9583 160.188V153.525L35.6059 151.118Z" fill="#FF847C"/>
<path d="M45.3927 185.48L44.8109 185.855L44.6169 186.978H45.3927V187.539L45.9746 188.849L46.5565 189.598V190.908L47.3323 191.844L47.9142 191.095H48.496L48.8839 190.721V185.48L48.496 184.732H45.9746L45.3927 185.48Z" fill="#722391"/>
<path d="M47.4605 192.142V191.772L48.0383 191.032H48.6161L49.0013 190.476V185.479L48.8087 184.554L50.157 182.518L50.7348 181.963L50.9274 179.927H49.7718L49.0013 178.816V177.521L49.7718 176.966H50.9274L51.8905 177.521V176.225L53.2387 175.855L53.624 174.745L54.7796 174.19L55.3574 174.745H56.3205L56.8983 173.819H59.7874V171.969L59.2096 171.043L59.7874 169.933H60.3653L62.6766 170.673L63.447 170.303L64.9879 170.673H65.7583V169.377L66.3361 167.897H68.6475L69.2253 166.416H69.9957V164.936L70.3809 164.195H71.5366L72.4996 163.455L73.4627 162.159L74.0405 161.974L74.4257 162.345L74.6183 162.715H75.5814L75.774 163.455V166.416L75.5814 166.971L75.3888 168.452L76.3518 169.377L75.9666 169.933L75.774 170.488L74.6183 171.043L74.4257 171.784L74.6183 172.709V175.67L74.4257 177.521H73.6553V178.631H74.4257L75.774 179.187V180.667L75.3888 181.778L74.4257 182.148H72.4996L72.1144 182.518V185.109L71.5366 186.22V187.33L72.307 188.255L72.4996 189.366L71.344 189.921L69.2253 189.736L69.6105 190.847L69.9957 191.587L69.2253 192.512V193.623L69.6105 194.178L69.9957 195.103L70.3809 195.288V197.139L70.7662 196.214L72.1144 196.029H73.2701L74.4257 196.214V198.25H72.4996L72.1144 197.139H71.344L70.7662 197.694L70.5735 198.435L71.1514 198.99V200.1L71.344 200.656L72.6922 200.471L73.8479 199.36L75.3888 200.471L77.5075 199.545L78.2779 199.36L79.0483 199.545H79.8188L80.0114 200.286L80.3966 201.211L81.167 201.581H82.3227L82.9005 202.692V204.172H84.4414V204.542L83.2857 205.838V207.504L82.1301 207.689L81.167 208.429L80.0114 207.689H79.0483L77.8927 207.504L77.5075 208.059L76.9296 209.169H75.774L75.9666 211.02L75.3888 211.76V212.871L77.1223 213.426V214.351V215.277L75.1962 215.462L74.8109 216.017H71.9218L70.5735 216.572L69.8031 217.683H68.6475L67.6844 216.572H66.3361L65.5657 216.017H64.4101L63.447 215.462L61.7135 214.907L61.1357 213.981L59.5948 213.241L58.6318 212.131L57.4761 211.205L56.7057 210.095L54.0092 208.614L53.4313 207.133H53.0461V204.357L52.6609 203.062V201.581L52.0831 200.471V199.915L50.9274 198.99V196.584L49.7718 196.029V194.548L48.4235 192.697L47.4605 192.142Z" fill="#FF847C"/>
<path d="M54.5281 209.96L54.335 208.675L56.846 210.144L57.6186 211.245L58.7776 212.163L59.7434 213.264L61.2886 213.998L62.0613 214.916L63.6065 215.467L64.5723 216.018H65.7313L66.5039 216.568L66.8902 217.853L65.7313 218.588L66.3107 220.056H67.4697L67.856 221.341L69.015 221.525L69.5944 222.81L69.4013 224.095L70.1739 225.747V227.032L70.7534 228.133L71.7192 228.684L72.685 228.133H73.2644L73.4576 229.418V233.089L73.8439 234.558L75.196 234.742L74.8097 236.027L73.4576 236.577V237.495L72.685 238.964L73.2644 240.249V240.983L73.4576 241.717V243.186L72.685 244.471L71.1397 243.186L70.1739 241.717H69.4013L69.015 240.249L67.856 238.596L66.8902 237.495V235.843L66.3107 234.742V234.191H66.8902L66.3107 231.621V230.887L65.7313 230.336L65.1518 228.5L64.186 227.032V226.481L63.6065 224.829L62.4476 224.095L62.0613 222.626V221.525L60.3229 218.955L59.3571 216.568H58.5844L57.4255 215.1L56.6529 213.448L54.5281 209.96Z" fill="url(#paint7_linear_2_2977)"/>
<path d="M163.329 87.7762L161.96 86.8603L162.351 85.9444V83.7462L162.938 83.0135V82.0976L163.329 80.6322L164.307 80.8153L165.089 80.2658L166.654 79.7162H169V81.7312L169.783 82.2808L169.392 83.7462V86.1276L169 86.6771L168.414 87.0435L166.458 87.2267L165.676 87.7762H163.329Z" fill="#165DC9"/>
<path d="M195.326 84.5514V89.9454L196.881 89.0154L199.018 89.2014L199.99 88.2714H201.933L203.487 89.2014H208.539L208.928 88.6434L210.482 88.4574L210.871 86.9694L211.648 86.4114L211.843 85.2954L213.98 83.8074L215.34 83.9934L216.312 82.5054H217.478L217.866 81.9474L220.004 81.7614L220.975 81.0174H222.53L223.695 80.8314L224.473 79.7154H226.804L227.582 80.4594L226.804 82.5054V83.9934L227.387 85.2954V86.4114L226.027 86.2254L224.278 86.5974L223.307 87.7134L222.53 87.8994L221.752 89.0154L221.947 91.8053L224.278 90.6893L226.027 89.3874L228.553 86.9694L230.302 86.4114H231.662L233.217 86.0394L234.188 86.4114L234.771 86.9694L235.548 87.1554L236.326 88.0854H237.103V86.4114L236.131 85.6674L235.743 84.7374L235.548 83.2494L236.131 82.3194L237.103 81.3894L238.074 81.2034L239.24 80.4594V78.0414L238.852 77.1114L237.686 76.5534L236.908 76.7394H235.743L235.548 75.6234L234.771 75.4374L234.188 74.6934L233.605 74.5074L232.051 75.0654L232.245 74.3214L232.828 73.5775V72.6475L232.051 70.9735L230.885 70.0435L230.496 69.6715L230.885 68.3695L230.496 67.9975H229.719L229.525 67.6255H226.61L226.416 67.9975L225.444 68.3695L224.861 69.1135L223.501 69.4855L222.53 70.2295L220.975 70.0435L220.004 69.4855H218.838L218.06 68.7415L215.923 68.3695L214.757 68.7415L214.563 70.6015L213.203 71.7175L212.037 72.8335L210.482 73.0195L210.094 73.5775L208.151 74.1354L206.985 73.9495L206.402 74.5074L204.459 75.6234V76.3674H203.293L203.099 77.2974L201.739 78.5994L200.961 78.7854V80.0874L199.795 81.2034L197.269 81.5754H196.686L195.326 82.1334H193.772L192.606 81.5754L191.829 83.4354L192.606 84.5514H195.326Z" fill="#FF847C"/>
<path d="M220.968 88.9608H221.74L221.933 91.7547L220.968 92.3135V93.0585L220.195 94.1761L220.968 96.4112L221.74 97.3425L220.581 98.6463L220.002 99.0188L219.809 100.323L219.036 100.509L218.457 101.44L217.877 102.185L217.491 102.371L216.911 102.744V101.626L216.332 101.068H215.559L214.787 101.44L213.821 101.999H213.048L211.503 101.44H210.344L209.571 101.999V103.489L208.412 104.607H206.674L207.447 103.303V102.558L206.288 101.999L206.674 100.509L207.833 99.7639L208.992 98.46L210.151 98.8326L211.503 97.5287L212.276 96.2249L212.662 95.4799L213.821 93.8036L215.173 92.8723H215.559L217.877 90.8234L220.968 88.9608Z" fill="url(#paint8_linear_2_2977)"/>
<path d="M206.373 104.909L206.758 104.541H208.488L209.641 103.439V101.969L210.41 101.418H211.563L213.101 101.969H214.062L215.599 101.051H216.368L216.945 101.602V102.52L216.368 104.541L217.714 105.46L217.906 105.827L217.329 107.481L216.753 108.216L216.368 108.951L215.599 109.685L214.83 110.971L214.446 112.441L213.677 113.544V114.462L213.293 115.748H211.371L210.602 115.381H209.256L207.911 115.197H207.142L206.373 114.83V114.278H203.682V110.604L204.836 109.318V107.481L205.412 106.746L205.989 105.827L206.373 104.909Z" fill="url(#paint9_linear_2_2977)"/>
<path d="M202.768 111.245L203.537 111.615V114.206H206.23V114.761L206.999 115.131L206.615 115.686V118.462L206.999 119.943V122.534L206.615 123.089L205.461 123.459L204.884 124.2L204.499 124.94V127.531L204.884 128.556V130.122L203.153 131.417L202.96 132.343L201.229 131.417H200.652L200.46 131.788H199.883V129.937V128.456L199.499 128.271V126.421L198.537 124.385L198.152 123.089V120.683L197.768 119.943L197.191 118.462L196.806 117.907L197.96 116.057V114.761L198.345 113.651L199.114 112.91L201.037 112.355L201.614 111.615L202.768 111.245Z" fill="#165DC9"/>
<path d="M124.186 112.598L123.796 113.886H124.772L125.358 114.438V115.726L127.702 118.119V118.855H128.678V120.695L129.264 121.799L130.045 123.087L131.412 123.823H132.193V125.296L130.631 126.032L129.264 126.768V128.424L129.655 128.608L132.975 129.713L134.342 128.976L137.076 128.424L138.443 128.608V129.713L137.662 131.001L138.443 131.737H139.419L140.201 131.369L142.544 131.001L143.13 131.737L145.278 132.105L146.059 131.001V128.608L146.45 128.056H147.817L148.598 128.976L150.942 129.713L151.918 130.265L152.504 129.528V128.608L151.332 126.768L149.77 126.032L149.184 125.296V124.928L149.77 124.56V123.823H147.817L146.45 123.087L145.278 122.351V119.591L146.059 118.855H146.45L147.036 119.591L148.208 119.407L148.989 118.855L149.77 118.119H151.332L151.918 117.198L152.504 116.278L154.067 115.542L154.457 116.278L155.824 117.014L156.41 116.646V114.806H157.972L158.558 113.702H158.949L159.535 112.966V112.23H160.316V110.941L160.707 110.205L161.488 110.021V107.813L160.511 105.972V104.132H157.972L157.387 104.868L154.457 106.893V109.469L153.676 110.021L152.309 109.837H150.942L150.161 111.309V111.677L149.77 112.23H148.989L148.208 111.309L147.231 110.573L146.645 109.469L145.278 108.549H143.13V110.573L141.763 111.309H139.419L137.662 112.23H136.88L136.099 110.573L135.123 111.309L134.342 112.966H132.975L132.584 111.861L130.631 110.941L129.264 109.837L128.483 110.573H124.186V110.941L124.772 111.861L124.186 112.598Z" fill="#FF847C"/>
<path d="M193.559 89.9045H195.495L197.043 88.9783L199.172 89.1636L200.14 88.2374H202.076L203.624 89.1636H208.656L209.044 88.6078L210.592 88.4226L210.979 86.9407L211.753 86.3849L211.947 85.2735L214.076 83.7916L215.431 83.9768L216.399 82.4949H217.56L217.947 81.9391L220.076 81.7539L221.044 81.0129H222.592L223.754 80.8277L224.528 79.7162H226.85L227.625 80.4572L226.85 82.4949V83.9768L227.431 85.2735V86.3849L226.27 86.1997L224.334 86.5702L223.366 87.6816L222.592 87.8669L221.818 88.9783H221.044L217.947 90.8307L215.818 92.6832H215.431L214.076 93.6094L212.721 95.8323L211.56 97.4994L210.205 98.7961L209.044 98.4256L207.882 99.7223L206.721 100.463L206.527 101.945L207.495 102.501V103.242L206.527 104.909L205.947 105.835L205.56 106.762L204.785 107.502V109.355L203.624 110.652V111.763L202.85 111.393L201.689 111.763L201.301 112.504L198.979 113.06L198.398 113.615L197.624 111.578L196.269 110.652L196.85 108.984V107.873L197.43 107.502H198.205H198.979V106.762L198.205 106.391V106.206L201.495 103.983V103.242L200.914 103.057L199.753 101.019L197.624 99.7223L196.85 99.5371V98.0552L198.205 97.129H193.559L192.398 97.8699L191.817 98.7961L190.85 98.9814L190.269 99.5371H189.108L188.527 98.9814L186.785 98.2404H185.817L184.269 97.8699H180.591L179.624 98.0552L179.237 98.4256L178.269 99.5371V100.649L177.688 100.463L177.301 99.7223V98.4256L176.527 97.129L175.946 96.2027L176.527 95.647H177.107V93.7946L177.882 93.2389V92.1274L177.107 91.3865L176.914 90.8307L179.237 91.016L180.398 89.9045H181.753L183.108 90.4603L192.205 90.6455L193.559 89.9045Z" fill="#722391"/>
<path d="M177.856 101.089L178.24 100.534V99.4245L179.586 97.9453L180.547 97.7604H184.2L185.738 98.1302H186.699L188.43 98.8698L188.814 99.4245H190.16L190.737 98.8698L191.698 98.6849L192.275 97.7604L193.429 97.0208H198.043L196.697 97.9453V99.4245L197.466 99.6094L199.581 100.904L200.734 102.938L201.311 103.123V103.862L198.043 106.266L196.697 105.896L195.928 104.602H193.813L191.89 105.157H190.16L189.199 104.417H187.469L186.507 104.787L185.354 104.602L184.008 104.972H181.124L179.97 104.232L179.394 104.417L177.856 104.047L177.279 103.677L176.894 102.753L177.856 101.828V101.089Z" fill="#FF847C"/>
<path d="M80.7615 13.7359H76.5075V12.8122L75.734 11.5189L73.8003 10.9647L72.2534 10.041L71.6733 8.74771L70.3197 7.45447L68.386 6.71548L66.8391 5.23748L65.4855 5.05274L64.1319 3.0205L62.3916 1.912V0.0645142H61.6181L59.8778 0.618761H58.911L57.5574 0.0645142H56.2039L54.8503 0.618761H49.6294V1.912H44.7952L45.1819 3.0205L43.8283 5.23748L42.4748 5.05274L41.1212 6.53073L40.3477 8.74771L42.4748 10.041L45.1819 10.2257L45.9554 12.0732L48.6625 12.8122V13.7359L49.8227 13.9207L50.7896 15.2139L53.6901 16.5072H55.8171L56.2039 17.9852L58.911 18.5394H60.2646L61.2314 20.5716V22.4191L61.6181 23.7124L62.3916 23.3429L64.1319 24.6361V25.7446H64.9054L65.6789 27.0379L67.6125 27.9616L66.8391 30.3633H68.386L69.5462 30.9176L71.6733 33.1346V33.8736L73.0268 34.7973H75.3473H76.5075L77.0876 34.2431L78.2478 34.7973L79.408 36.0906V37.0143L80.3748 37.3838L82.3085 37.0143V37.3838L83.8554 38.1228L85.0156 39.0465L86.1758 37.3838V39.416H88.883L89.6565 39.0465H90.4299L91.3968 37.3838V31.4718H89.2697L87.336 30.3633L87.7228 28.8853L88.1095 27.9616L87.7228 27.0379L87.336 25.3751H91.3968L91.9769 23.3429V21.8649H93.5238V21.3106V20.2022H95.6509L96.4243 19.0937V17.0614L97.0044 14.8444V13.7359L95.6509 12.8122V12.2579H94.1039L93.1371 11.8884L91.3968 10.4105L90.4299 8.74771H87.7228L85.7891 10.9647L80.7615 13.7359Z" fill="#FF847C"/>
<path d="M162.139 88.2564L161.752 86.7759L163.105 87.7012H165.425L166.198 87.146L167.938 86.9609L168.518 86.5908L169.098 88.2564L170.065 89.1817V89.922H173.931L175.091 90.8473H176.637L176.831 91.4025L177.604 92.1427V93.2531L176.831 93.8083V95.6589H176.251L175.671 96.2141L175.091 96.3992L174.704 97.8797H174.511L173.351 97.5096L171.998 96.5842L171.031 95.844V94.7336L170.258 93.9934H169.678V95.1037H169.098L167.938 94.5485L166.005 94.7336L163.105 97.5096V98.4349L164.265 99.3602L165.039 99.7303L165.618 101.211L166.972 102.506L168.132 102.321L169.098 103.061L170.065 104.172L169.871 104.727H168.132L166.392 105.097L165.425 105.837L165.232 106.578L162.719 108.243V109.724L163.105 110.464L163.879 111.204L164.652 111.574L165.425 112.13H167.745V113.98L168.132 114.72V115.461L167.358 116.201L166.392 116.756V117.496L166.972 118.607L167.165 118.977L168.132 119.532L168.325 121.013L169.871 122.863L169.291 124.529V125.639L170.065 126.935V129.711L170.838 131.191V131.931L169.678 132.301L170.838 133.412V136.373L169.678 135.633H167.358V133.597H167.165L166.392 135.633H165.039L163.879 134.707L163.105 133.597V132.116L163.879 131.191L162.719 130.451L161.752 128.415L161.559 128.97V129.711L162.332 130.821L162.525 131.376V132.116L161.945 133.042L161.366 133.782L158.852 135.077L158.272 135.263L157.886 134.892L157.499 134.152L157.113 133.782H155.953L154.986 132.301L153.246 131.376L151.7 130.266L152.28 129.526V128.6L151.12 126.75L149.573 126.009L148.993 125.269V124.899L149.573 124.344V123.789H147.64L145.127 122.308V119.532L145.9 118.792H146.287L146.867 119.532L148.027 119.347L148.8 118.792L149.573 118.052H151.12L152.28 116.201L153.826 115.461L154.213 116.201L155.566 116.941L156.146 116.571V114.72H157.693L158.272 113.61H158.659L159.239 112.87V112.13H160.012V111.019L160.399 110.094L161.172 109.909V107.688L160.206 105.837V102.321L162.139 101.951L162.719 100.841L162.525 100.286L160.979 99.3602L160.206 98.2498V97.8797L163.105 96.0291L163.492 94.3635H164.072L164.459 93.4382L163.492 91.9577L162.525 92.6979L163.105 90.6622V89.3668L162.139 88.2564Z" fill="url(#paint10_linear_2_2977)"/>
<path d="M100.18 160.915L98.4264 160.177V157.408L99.2057 156.855V155.009L99.5954 153.902H100.18L100.764 154.64H102.323V154.455V152.794L100.764 150.949L99.5954 150.21V149.103L100.569 148.365V147.627H99.5954V146.519H101.154V144.858L99.5954 143.935L100.18 142.828L99.985 141.905L99.0109 140.244L101.154 138.399L100.959 137.845L102.323 137.291V134.707L103.102 134.154V132.493L103.687 131.754H104.466L105.245 130.462V129.909L105.83 128.801L106.414 128.432H108.362L108.557 127.694L109.531 126.956L110.505 126.587L110.7 124.372L111.674 124.741L112.843 123.634L114.402 122.157V121.234L113.428 120.496H112.843L111.674 119.573H109.531V118.097L109.921 116.251H111.674L113.038 117.174H117.714L119.078 116.62V116.251H122.39L123.169 114.959L124.143 113.852H124.922L125.507 114.59V115.698L127.845 118.097V118.835H128.819V120.681L130.183 123.08L131.546 123.818H132.326V125.295L129.403 126.771V128.432L128.624 128.801L126.481 130.832L125.507 131.201V133.785L124.922 134.892L124.338 135.815L123.948 136.922L122.584 138.952L122 139.137V139.506H117.909L116.545 140.982H115.961V148.365H118.493L119.078 150.026L117.909 150.949L114.792 149.103L112.454 148.365L111.285 149.103V150.026L111.869 150.949L113.038 152.425V153.348L113.817 155.009V159.069L113.038 160.177L110.7 162.761L109.142 163.683L108.557 164.791V167.19L107.583 167.005H104.856L104.271 166.636L103.687 165.344L103.102 164.422H102.323L101.544 162.945V162.022L101.154 161.653L100.18 160.915Z" fill="#722391"/>
<path d="M110.595 167.004L108.86 167.189V164.776L109.246 163.663L110.981 162.735L113.294 160.322L114.065 159.022V154.753L113.294 153.268V151.969L111.752 150.112V148.999L112.909 148.256L115.222 149.184L118.114 150.855L119.27 149.741L118.692 148.256H116.186V140.831H116.764L118.114 139.346H122.162V138.975L122.741 138.79L124.09 136.748L124.476 135.634L125.632 133.592V130.993L126.596 130.622L128.717 128.58L129.488 128.209L133.151 129.509L134.5 128.766L137.199 128.209L138.549 128.395V129.509L137.778 130.808L138.549 131.55H139.705L140.284 131.179L142.597 130.808L143.175 131.55L145.296 131.922L146.067 130.808V128.395L146.453 127.838L147.995 128.024L148.381 128.766L150.887 129.509L151.851 130.065L153.586 131.179L155.321 132.107L156.092 133.407H157.056L157.634 133.963L158.02 134.706L158.405 135.077L156.092 135.448L154.742 136.191L153.971 136.748V137.49L153.007 138.418V140.46L153.586 141.574L153.971 142.873L153.586 144.358L152.622 144.915V146.214L150.887 146.771L150.116 147.699L149.537 148.999L148.959 149.37L148.766 148.999L147.995 148.813L147.224 147.885L147.417 149.741V150.112H146.453L145.489 150.484L143.175 150.298L142.019 149.741H140.669L139.127 151.226L139.32 151.969L138.741 152.711L138.549 154.01L137.585 154.939L136.428 156.238L134.693 156.052L133.536 156.98H132.38V158.651H129.681L127.946 158.465L126.403 156.98L126.018 156.238L124.09 156.052L123.512 156.98V159.208H122.162L121.969 162.178L119.849 162.363L120.042 162.735L117.343 163.106L117.15 162.178H116.572V161.25H115.8L115.415 161.992V165.333L114.258 164.962L112.909 165.89L112.138 165.705L110.595 166.447V167.004Z" fill="url(#paint11_linear_2_2977)"/>
<path d="M106.907 168.729V167.071H105.348L104.568 166.702L103.984 165.597L103.399 164.491H102.619L101.84 163.018V162.096L100.475 160.991L98.721 160.254L97.7464 160.07H96.7718L95.9922 159.333V158.043L95.6023 157.037V154.912L95.9922 154.543L95.6023 153.622L94.6278 152.332H93.8481V153.254H92.6786L91.7041 152.885L90.3397 152.517L90.1448 151.964H88.7804L88.3905 152.332H87.416L86.8312 151.411L86.0516 150.49H84.1024L82.5431 150.122V152.148L81.7635 153.99V154.727L80.7889 155.28L79.0347 154.727L78.6448 155.28L77.6703 157.122L79.0347 158.78V159.333L78.0601 160.07L77.8652 160.438L76.8906 161.36L76.111 161.728L75.9161 162.833H75.7211L75.9161 163.57V166.518L75.7211 167.071L75.5262 168.544L76.5008 169.466L76.111 170.018L75.9161 170.571L74.7466 171.124L74.5517 171.861L74.7466 172.782V175.729L74.5517 177.572L73.772 177.756V178.677H74.5517L75.9161 179.23V180.703L75.5262 181.809L76.3059 182.362L78.8398 180.519L80.594 179.782L83.1279 180.519L85.8567 179.414L87.2211 180.519L89.9498 179.414V178.309L91.899 176.835H93.0685L94.238 177.203L95.4074 176.098L96.1871 175.177L97.7464 173.703L99.1108 172.966L99.6955 173.703H101.06L101.45 172.045L103.009 171.124H103.984L105.738 172.045L106.323 170.387H108.856V169.097L107.687 168.729H106.907Z" fill="#165DC9"/>
<path d="M97.7005 203.014L98.664 202.275V205.602L98.0859 207.45V209.113L97.7005 209.853L97.3151 211.516L96.737 211.886L96.159 212.81L95.3882 213.364L94.4247 214.658H93.4612V215.952L94.0393 216.506V219.463L93.4612 219.833L94.4247 220.757V227.78L93.8466 228.15H91.3416L90.5708 228.705L90.1854 229.444V231.292L89.0292 231.662L88.0657 233.14L87.4876 234.249L87.873 235.543L89.0292 235.913L91.3416 236.098L91.7269 237.207L90.5708 236.652H86.9096L85.1753 237.022L84.5972 237.576L83.441 238.131H82.4776L81.3214 239.794V242.197L80.5506 243.306L77.8529 244.969L77.0821 245.339L75.9259 245.893H73.8062L72.6501 244.6L73.4209 243.306V241.642L73.2282 241.088V240.349L72.6501 239.055L73.4209 237.576V236.652L74.7697 236.098L75.1551 234.804L73.8062 234.619L73.4209 233.14V229.444L73.2282 228.15H72.6501L71.6866 228.705L70.7231 228.15L70.145 227.041V225.747L69.3742 224.084L69.5669 222.79L68.9889 221.496L67.8327 221.312L67.4473 220.018L66.2911 219.833L65.713 218.539L66.8692 217.8L66.4838 216.506H67.8327L68.7962 217.615H69.9523L70.7231 216.506L72.072 215.952H74.9624L75.3478 215.397L77.2748 215.212V213.364L75.5405 212.625V211.701L76.1186 210.961L75.9259 209.113H77.0821L77.4675 208.004L78.0456 207.45L79.2017 207.635H80.1652L82.2849 209.113L84.0191 208.928L84.5972 208.004L85.1753 206.895L86.3315 206.156H88.2584L89.8 205.786L90.7635 204.493H94.4247L96.159 202.644L97.7005 203.014Z" fill="url(#paint12_linear_2_2977)"/>
<path d="M135.584 157.206L136.357 156.469L134.618 156.285L133.459 157.022H132.299V158.864H129.208L127.856 158.68L126.31 157.206L125.924 156.469L123.992 156.285L123.412 157.206V159.417L122.059 159.601L121.866 162.364L119.741 162.548L119.934 162.916L117.229 163.285L117.036 162.364H116.456V161.443H115.684L115.297 162.364V165.495L114.138 165.127L112.785 166.232L112.013 165.679L110.467 166.6V167.153H108.921H107.955L106.796 166.969V168.81H107.569L108.728 169.179V170.468H106.216L105.637 172.126L103.898 171.205H102.932L101.386 172.126L101 173.784H99.6472L99.0676 173.047L97.5219 173.784L96.1695 175.257L95.5899 175.994L94.2374 177.283L93.2713 176.915H91.9189L89.9868 178.389V179.494L87.2819 180.599L85.9294 179.494L83.2245 180.599L80.7128 179.862L78.7807 180.599L76.4622 182.441L75.6894 181.888L74.7233 182.257H72.7912L72.4048 182.625V185.204L71.8252 186.493V187.414L72.598 188.335L72.7912 189.44L71.4388 189.993L69.5067 189.624L69.8931 190.914L70.2795 191.651L69.5067 192.572V193.677L69.8931 194.229L70.2795 195.15L70.6659 195.334V196.992L71.0524 196.255L72.4048 196.071H73.7573L74.7233 196.255V198.282H72.7912L72.4048 197.176H71.632L71.0524 197.729L70.8592 198.466L71.4388 199.018V200.124L71.632 200.676L72.9844 200.492L74.1437 199.387L75.6894 200.492L77.8147 199.571L78.5875 199.387L79.3603 199.571H80.1332L80.7128 201.229L81.4856 201.413L82.6449 201.597L83.2245 202.702V204.176H84.7702V204.544L83.6109 205.834V207.491L82.4517 207.676L81.4856 208.412L82.4517 209.149L84.1905 208.965L84.9634 207.86L85.3498 206.939L86.509 206.202H88.4411L89.9868 205.834L90.9528 204.544H94.6238L96.3627 202.702L97.9084 203.071L98.8744 202.518V201.229L97.9084 199.018L97.5219 196.992L97.9084 195.887V194.782L97.1355 192.94L96.9423 188.703L97.7151 187.414V186.862L99.8404 184.099L101.193 183.546H102.739L103.125 184.099H103.705L104.477 183.73L105.637 182.809V181.888L106.216 180.967V179.31H111.433L115.297 177.652L115.684 177.099V172.863L117.036 172.126L119.741 171.205L122.059 170.1L123.412 168.626L123.992 167.705L124.958 167.153L125.924 166.048L126.503 165.127L127.856 164.206L128.629 163.469H129.401L130.174 162.732L131.333 162.179L133.459 160.153L134.618 158.864L135.584 157.206Z" fill="#FF847C"/>
<path d="M196.114 111.265L196.507 110.533L197.683 111.448L198.467 113.459L198.075 114.739V116.02L196.899 117.848H195.722L195.33 118.214L194.546 119.311V120.408H193.958L193.566 121.689V123.334H191.41L190.43 121.871H189.842L189.646 120.408L188.665 119.677L188.273 118.214V116.385L189.057 115.654L191.998 113.642H192.978L194.546 112.728V112.362L194.938 111.631L196.114 111.265Z" fill="#165DC9"/>
<defs>
<linearGradient id="paint0_linear_2_2977" x1="58.1292" y1="15.4738" x2="58.1292" y2="40.3648" gradientUnits="userSpaceOnUse">
<stop stop-color="#48CFAF"/>
<stop offset="1" stop-color="#41C1C9"/>
</linearGradient>
<linearGradient id="paint1_linear_2_2977" x1="74.0093" y1="31.8301" x2="74.0093" y2="58.3806" gradientUnits="userSpaceOnUse">
<stop stop-color="#FFB5B1"/>
<stop offset="1" stop-color="#CD7ED9"/>
</linearGradient>
<linearGradient id="paint2_linear_2_2977" x1="58.1303" y1="38.4673" x2="58.1303" y2="84.5319" gradientUnits="userSpaceOnUse">
<stop stop-color="#FFDC7E"/>
<stop offset="0.39" stop-color="#FFCF50"/>
<stop offset="0.89" stop-color="#281508"/>
</linearGradient>
<linearGradient id="paint3_linear_2_2977" x1="63.2241" y1="53.877" x2="63.2241" y2="103.174" gradientUnits="userSpaceOnUse">
<stop stop-color="#FFDC7E"/>
<stop offset="0.39" stop-color="#FFCF50"/>
<stop offset="0.89" stop-color="#281508"/>
</linearGradient>
<linearGradient id="paint4_linear_2_2977" x1="25.6508" y1="108.874" x2="25.6508" y2="148.463" gradientUnits="userSpaceOnUse">
<stop stop-color="#FFB5B1"/>
<stop offset="1" stop-color="#CD7ED9"/>
</linearGradient>
<linearGradient id="paint5_linear_2_2977" x1="103.17" y1="58.3806" x2="103.17" y2="116.223" gradientUnits="userSpaceOnUse">
<stop stop-color="#FFB5B1"/>
<stop offset="1" stop-color="#CD7ED9"/>
</linearGradient>
<linearGradient id="paint6_linear_2_2977" x1="83.6095" y1="89.6724" x2="83.6095" y2="139.929" gradientUnits="userSpaceOnUse">
<stop stop-color="#48CFAF"/>
<stop offset="1" stop-color="#41C1C9"/>
</linearGradient>
<linearGradient id="paint7_linear_2_2977" x1="64.7655" y1="208.675" x2="64.7655" y2="244.471" gradientUnits="userSpaceOnUse">
<stop stop-color="#48CFAF"/>
<stop offset="1" stop-color="#41C1C9"/>
</linearGradient>
<linearGradient id="paint8_linear_2_2977" x1="214.111" y1="88.9608" x2="214.111" y2="104.607" gradientUnits="userSpaceOnUse">
<stop stop-color="#48CFAF"/>
<stop offset="1" stop-color="#41C1C9"/>
</linearGradient>
<linearGradient id="paint9_linear_2_2977" x1="210.794" y1="101.051" x2="210.794" y2="115.748" gradientUnits="userSpaceOnUse">
<stop stop-color="#FFB5B1"/>
<stop offset="1" stop-color="#CD7ED9"/>
</linearGradient>
<linearGradient id="paint10_linear_2_2977" x1="161.366" y1="86.5908" x2="161.366" y2="171.447" gradientUnits="userSpaceOnUse">
<stop stop-color="#FFDC7E"/>
<stop offset="0.39" stop-color="#FFCF50"/>
<stop offset="0.89" stop-color="#281508"/>
</linearGradient>
<linearGradient id="paint11_linear_2_2977" x1="133.633" y1="127.838" x2="133.633" y2="167.189" gradientUnits="userSpaceOnUse">
<stop stop-color="#FFB5B1"/>
<stop offset="1" stop-color="#CD7ED9"/>
</linearGradient>
<linearGradient id="paint12_linear_2_2977" x1="82.1885" y1="202.275" x2="82.1885" y2="245.893" gradientUnits="userSpaceOnUse">
<stop stop-color="#FFB5B1"/>
<stop offset="1" stop-color="#CD7ED9"/>
</linearGradient>
</defs>
</svg>
