<svg width="35" height="35" viewBox="0 0 35 35" fill="none" xmlns="http://www.w3.org/2000/svg">
<path d="M26.5264 20.874C27.0265 19.6596 27.2979 18.3594 27.2979 16.9307C27.2979 15.902 27.1408 14.9161 26.8693 14.0017C25.9406 14.2161 24.9691 14.3304 23.9546 14.3304C21.8772 14.3326 19.8297 13.8353 17.9847 12.8805C16.1396 11.9257 14.5512 10.5412 13.3533 8.84395C12.0731 11.9454 9.65531 14.4399 6.59533 15.8163C6.53818 16.1734 6.53818 16.5592 6.53818 16.9307C6.53818 18.2947 6.80685 19.6454 7.32885 20.9056C7.85084 22.1658 8.61594 23.3109 9.58047 24.2754C11.5284 26.2233 14.1704 27.3177 16.9252 27.3177C18.4254 27.3177 19.8684 26.9891 21.1686 26.4033C21.983 27.9606 22.3544 28.7322 22.3259 28.7322C19.9827 29.518 18.1682 29.9037 16.9252 29.9037C13.4676 29.9037 10.1672 28.5464 7.73833 26.1033C6.25965 24.6315 5.16125 22.8221 4.53793 20.8312H2.6377V14.3304H4.19503C4.66686 12.0337 5.75165 9.90753 7.33427 8.17757C8.91689 6.44761 10.9383 5.17836 13.1841 4.50449C15.4298 3.83062 17.8161 3.77728 20.0897 4.35011C22.3633 4.92295 24.4394 6.1006 26.0978 7.7581C27.8977 9.55201 29.1257 11.839 29.6268 14.3304H31.2127V20.8312H31.127L26.0406 25.5032L18.4682 24.6459V22.2599H25.3691L26.5264 20.874ZM13.0247 16.6021C13.4533 16.6021 13.8677 16.7735 14.1677 17.0878C14.4692 17.3918 14.6384 17.8027 14.6384 18.2308C14.6384 18.659 14.4692 19.0698 14.1677 19.3738C13.8677 19.6739 13.4533 19.8453 13.0247 19.8453C12.1246 19.8453 11.3959 19.131 11.3959 18.2308C11.3959 17.3307 12.1246 16.6021 13.0247 16.6021ZM20.8114 16.6021C21.7115 16.6021 22.4259 17.3307 22.4259 18.2308C22.4259 19.131 21.7115 19.8453 20.8114 19.8453C19.9113 19.8453 19.1826 19.131 19.1826 18.2308C19.1826 17.7989 19.3542 17.3846 19.6597 17.0791C19.9651 16.7737 20.3794 16.6021 20.8114 16.6021Z" fill="#18CE98"/>
</svg>
