<svg width="29" height="28" viewBox="0 0 29 28" fill="none" xmlns="http://www.w3.org/2000/svg">
<path d="M20.6439 14.0323C24.3158 14.0323 27.2958 11.0083 27.2958 7.28226C27.2958 3.55626 24.3158 0.532257 20.6439 0.532257C16.972 0.532257 13.9919 3.55626 13.9919 7.28226C13.9919 11.0083 16.972 14.0323 20.6439 14.0323ZM27.8945 21.5923C27.3757 21.0523 26.7238 20.7823 25.9654 20.7823H16.6527L13.8854 19.7968L14.3245 18.5278L16.6527 19.4323H20.3778C20.8434 19.4323 21.2159 19.2433 21.5219 18.9328C21.8279 18.6223 21.9743 18.2443 21.9743 17.8258C21.9743 17.0968 21.6284 16.5973 20.9365 16.3138L11.2646 12.6823H8.67029V24.8323L17.9831 27.5323L28.6662 23.4823C28.6795 22.7668 28.4134 22.1323 27.8945 21.5923ZM6.0095 12.6823H0.666626V27.5323H6.0095V12.6823Z" fill="#72BBFF"/>
</svg>
