<svg width="29" height="29" viewBox="0 0 29 29" fill="none" xmlns="http://www.w3.org/2000/svg">
<path d="M14.4763 28.9608C12.5001 28.9608 10.643 28.5856 8.90487 27.8351C7.16677 27.0846 5.65487 26.067 4.36915 24.7822C3.08344 23.4975 2.06582 21.9856 1.3163 20.2465C0.566773 18.5075 0.191535 16.6503 0.190582 14.6751C0.190582 12.6751 0.55963 10.8122 1.29773 9.08653C2.03582 7.36082 3.04773 5.84272 4.33344 4.53225L14.4763 14.6751V0.389389C16.4525 0.389389 18.3096 0.764627 20.0477 1.5151C21.7858 2.26558 23.2977 3.2832 24.5834 4.56796C25.8692 5.85272 26.8872 7.36463 27.6377 9.10367C28.3882 10.8427 28.763 12.6999 28.762 14.6751C28.7611 16.6503 28.3858 18.5075 27.6363 20.2465C26.8868 21.9856 25.8692 23.4975 24.5834 24.7822C23.2977 26.067 21.7858 27.0851 20.0477 27.8365C18.3096 28.588 16.4525 28.9627 14.4763 28.9608Z" fill="#FF834D"/>
</svg>
