<svg width="26" height="24" viewBox="0 0 26 24" fill="none" xmlns="http://www.w3.org/2000/svg">
<path d="M1.7101 1.43906e-07C1.13381 1.43906e-07 0.666626 0.467181 0.666626 1.04348C0.666626 1.61978 1.13381 2.08696 1.7101 2.08696H3.56676C3.71869 2.08696 3.86676 2.13476 3.99001 2.2236C4.11326 2.31243 4.20543 2.4378 4.25346 2.58193L7.6938 12.9049C7.84658 13.3632 7.866 13.8567 7.74883 14.3254L7.46554 15.4606C7.04988 17.1233 8.3441 18.7826 10.0579 18.7826H22.5797C23.156 18.7826 23.6231 18.3154 23.6231 17.7391C23.6231 17.1628 23.156 16.6957 22.5797 16.6957H10.0579C9.65161 16.6957 9.39077 16.3623 9.48932 15.9681L9.70295 15.1148C9.73915 14.9702 9.82263 14.8419 9.94011 14.7502C10.0576 14.6585 10.2024 14.6087 10.3514 14.6087H21.5362C21.9855 14.6089 22.3845 14.3216 22.5267 13.8954L25.3086 5.54755C25.534 4.8716 25.0306 4.17359 24.3181 4.17391H7.5063C7.35437 4.17391 7.20629 4.12611 7.08304 4.03728C6.95979 3.94844 6.86762 3.82308 6.81957 3.67895L5.83103 0.713315C5.68884 0.287118 5.28983 -0.000234753 4.84054 1.43906e-07H1.7101ZM9.01445 19.8261C7.86186 19.8261 6.9275 20.7604 6.9275 21.913C6.9275 23.0656 7.86186 24 9.01445 24C10.167 24 11.1014 23.0656 11.1014 21.913C11.1014 20.7604 10.167 19.8261 9.01445 19.8261ZM21.5362 19.8261C20.3836 19.8261 19.4492 20.7604 19.4492 21.913C19.4492 23.0656 20.3836 24 21.5362 24C22.6888 24 23.6231 23.0656 23.6231 21.913C23.6231 20.7604 22.6888 19.8261 21.5362 19.8261Z" fill="#FF5D8D"/>
</svg>
